<?xml version="1.0" encoding="UTF-8"?>
<svg id="Layer_2" data-name="Layer 2" xmlns="http://www.w3.org/2000/svg" viewBox="0 0 990.61 250.48">
  <defs>
    <style>
      .cls-1 {
        fill: #FF006E;
      }
    </style>
  </defs>
  <g id="Layer_1-2" data-name="Layer 1">
    <g>
      <path class="cls-1" d="m170.98,50.29v147.36c0,1.34-1.09,2.43-2.44,2.43h-42.74c-1.35,0-2.44-1.09-2.44-2.43v-2.24c0-.94-1.01-1.51-1.83-1.05-12.25,6.89-26.1,10.52-40.3,10.52C36.43,204.87,0,169.11,0,125.16S36.43,45.46,81.21,45.46c14.2,0,28.05,3.62,40.3,10.52.82.46,1.83-.11,1.83-1.05v-4.64c0-1.34,1.09-2.43,2.44-2.43h42.74c1.35,0,2.44,1.09,2.44,2.43Zm-47.63,74.88c0-20.16-14.27-36.56-34.8-36.56s-37.25,16.4-37.25,36.56,16.71,36.56,37.25,36.56,34.8-16.4,34.8-36.56Z"/>
      <path class="cls-1" d="m365.42,125.23c0,43.95-36.43,79.7-81.21,79.7-14.21,0-28.05-3.62-40.3-10.51-.82-.46-1.83.11-1.83,1.05v52.58c0,1.34-1.09,2.43-2.44,2.43h-42.74c-1.35,0-2.44-1.09-2.44-2.43V50.35c0-1.34,1.09-2.43,2.44-2.43h42.74c1.35,0,2.44,1.09,2.44,2.43v4.64c0,.94,1.01,1.51,1.83,1.05,12.25-6.89,26.1-10.52,40.3-10.52,44.78,0,81.21,35.75,81.21,79.7Zm-51.29,0c0-20.16-16.71-36.56-37.25-36.56s-34.8,16.4-34.8,36.56,14.27,36.56,34.8,36.56,37.25-16.4,37.25-36.56Z"/>
      <path class="cls-1" d="m432.59,2.43v195.3c0,1.34-1.09,2.43-2.44,2.43h-45.19c-1.35,0-2.44-1.09-2.44-2.43V2.43c0-1.34,1.09-2.43,2.44-2.43h45.19c1.35,0,2.44,1.09,2.44,2.43Z"/>
      <path class="cls-1" d="m503.64,2.43v31.06c0,1.34-1.09,2.43-2.44,2.43h-42.74c-1.35,0-2.44-1.09-2.44-2.43V2.43c0-1.34,1.09-2.43,2.44-2.43h42.74c1.35,0,2.44,1.09,2.44,2.43Zm0,47.94v147.36c0,1.34-1.09,2.43-2.44,2.43h-42.74c-1.35,0-2.44-1.09-2.44-2.43V50.37c0-1.34,1.09-2.43,2.44-2.43h42.74c1.35,0,2.44,1.09,2.44,2.43Z"/>
      <path class="cls-1" d="m657.78,196.48c.98,1.62-.2,3.68-2.09,3.68h-49.61c-.9,0-1.73-.49-2.15-1.28l-24.51-45.56c-1.2-2.23-4.6-1.38-4.6,1.15v43.26c0,1.34-1.09,2.43-2.44,2.43h-42.74c-1.35,0-2.44-1.09-2.44-2.43V2.43c0-1.34,1.09-2.43,2.44-2.43h42.74c1.35,0,2.44,1.09,2.44,2.43v91.2c0,2.53,3.4,3.38,4.6,1.15l24.51-45.56c.42-.79,1.25-1.28,2.15-1.28h49.61c1.9,0,3.07,2.06,2.09,3.68l-42.93,71.18c-.46.77-.46,1.73,0,2.5l42.93,71.18Z"/>
      <path class="cls-1" d="m823.45,50.29v147.36c0,1.34-1.09,2.43-2.44,2.43h-42.74c-1.35,0-2.44-1.09-2.44-2.43v-2.24c0-.94-1.01-1.51-1.83-1.05-12.25,6.89-26.1,10.52-40.3,10.52-44.78,0-81.21-35.76-81.21-79.7s36.43-79.71,81.21-79.71c14.2,0,28.05,3.62,40.3,10.52.82.46,1.83-.11,1.83-1.05v-4.64c0-1.34,1.09-2.43,2.44-2.43h42.74c1.35,0,2.44,1.09,2.44,2.43Zm-47.63,74.88c0-20.16-14.27-36.56-34.8-36.56s-37.25,16.4-37.25,36.56,16.71,36.56,37.25,36.56,34.8-16.4,34.8-36.56Z"/>
      <path class="cls-1" d="m990.46,51.2l-48.14,133.14-22.41,63.34c-.34.97-1.27,1.62-2.3,1.62h-47.5c-1.67,0-2.85-1.63-2.31-3.21l18.61-54.87c.18-.52.17-1.09-.02-1.61l-50.89-138.4c-.58-1.59.6-3.27,2.29-3.27h42.58c1.02,0,1.94.63,2.29,1.59l27.88,75c.8,2.15,3.86,2.11,4.6-.06l25.69-74.88c.34-.98,1.27-1.65,2.31-1.65h45.02c1.69,0,2.87,1.67,2.3,3.26Z"/>
    </g>
  </g>
</svg>
